# This file uses centimeters as units for non-parametric coordinates.

mtllib Floor lowpoly.mtl
g default
v 466.046424 -8.937054 436.337982
v 480.038757 -7.279025 -436.526961
v -450.655229 -13.963953 375.379843
v 493.322445 -13.963954 373.841876
v -375.874312 -13.963953 437.378131
v -375.874312 -13.963953 374.236029
v -375.874312 -13.963953 -436.526961
v -451.489530 -13.751813 -377.541855
v -375.874312 -13.963953 -377.193782
v 505.260175 -9.280735 -369.694499
v 541.286722 -13.963953 373.841876
v 543.796015 -13.751813 -377.278112
v 489.197550 -3.158516 404.404872
v -375.874312 -13.963953 406.857614
v 463.972303 -8.937054 406.738737
v 458.798217 -13.963954 375.398447
v 471.308774 -13.963953 -374.861847
v 466.186071 -13.963953 -436.526961
v -375.874312 -13.963953 -407.461228
v 469.468065 -13.963953 -407.461228
v 480.038811 -7.279025 -407.461228
v -450.655229 -13.963953 0.362402
v -375.874312 -13.963953 0.362402
v 468.116824 -13.963953 4.785581
v 494.271403 -13.963953 4.978606
v 541.286722 -13.963953 4.978606
v 40.654341 -13.963953 437.378131
v 41.045408 -13.963953 407.247200
v 41.461952 -13.963953 375.905658
v 46.121256 -13.963953 2.574011
v 50.780559 -13.963953 -377.034409
v 51.331305 -13.963953 -407.461228
v 51.698663 -13.963953 -436.526961
v 482.464423 -15.005506 -407.461228
v 482.464369 -15.005506 -436.526961
v -400.954493 -9.126310 436.327780
v -403.618045 -9.533226 406.728717
v -399.950916 -9.199848 405.008677
v -396.543806 -12.540215 375.598394
v -379.250581 -9.521464 -408.134517
v -380.584272 -9.521463 -437.734310
v -382.548669 -16.983682 -408.134517
v -383.882332 -16.983682 -437.734310
v -406.983288 -12.650007 -377.908923
v -404.945077 -12.650007 -407.508194
v -419.113560 -13.963953 373.020773
v -427.540632 -13.963953 0.362402
v -427.540632 -13.963953 -374.391557
v 490.187971 -8.927245 375.390020
v -451.437418 -13.765068 -353.931531
v -427.540632 -13.963953 -350.978075
v -375.874312 -13.963953 -353.605271
v 50.489455 -13.963953 -353.317628
v 471.109331 -13.963953 -351.142666
v 506.179371 -13.963953 -347.590127
v 543.796015 -13.751813 -349.213286
v 446.219400 -13.963953 -436.526961
v 449.325567 -13.963953 -407.461228
v 451.051053 -13.963953 -374.966530
v 450.847135 -13.963953 -351.247349
v 447.788470 -13.963953 4.679045
v 438.694324 -13.963954 375.422870
v 445.211402 -13.963953 406.471524
v 444.447922 -13.963953 436.635018
vt 0.795843 0.507685
vt 0.773310 0.508106
vt 0.771579 0.196309
vt 0.794401 0.196194
vt 0.141077 0.199116
vt 0.162807 0.199033
vt 0.164157 0.518437
vt 0.142431 0.518785
vt 0.202587 0.142373
vt 0.204870 0.160235
vt 0.187365 0.160308
vt 0.184932 0.142408
vt 0.203068 0.198878
vt 0.204628 0.517671
vt 0.186898 0.517948
vt 0.185434 0.198947
vt 0.193359 0.857860
vt 0.210238 0.858388
vt 0.209150 0.886529
vt 0.188229 0.886952
vt 0.747188 0.196432
vt 0.749875 0.508548
vt 0.750948 0.820830
vt 0.774588 0.824915
vt 0.773401 0.844297
vt 0.751291 0.844623
vt 0.189674 0.832304
vt 0.207449 0.832167
vt 0.143544 0.828611
vt 0.165287 0.831008
vt 0.165174 0.840362
vt 0.143440 0.840112
vt 0.747779 0.140507
vt 0.746127 0.164103
vt 0.467517 0.159119
vt 0.467440 0.141834
vt 0.470711 0.513334
vt 0.467686 0.197756
vt 0.473917 0.848385
vt 0.473692 0.828830
vt 0.749875 0.846658
vt 0.474060 0.883540
vt 0.749999 0.882529
vt 0.796714 0.826286
vt 0.774238 0.810421
vt 0.796801 0.809707
vt 0.750942 0.805784
vt 0.473551 0.813632
vt 0.189568 0.817187
vt 0.207311 0.817005
vt 0.165253 0.815952
vt 0.143515 0.813688
vt 0.165103 0.846417
vt 0.143369 0.846167
vt 0.771373 0.175300
vt 0.793526 0.177097
vt 0.748124 0.180934
vt 0.770203 0.177955
vt 0.140140 0.194280
vt 0.162287 0.194862
vt 0.140187 0.188179
vt 0.162336 0.188761
vt 0.162687 0.177272
vt 0.184815 0.175665
vn 0.000000 1.000000 0.000000
vn 0.000000 1.000000 -0.000000
vn 0.000000 1.000000 0.000000
vn 0.000000 1.000000 0.000000
vn 0.000000 1.000000 0.000000
vn 0.000000 1.000000 0.000000
vn 0.000000 1.000000 0.000000
vn 0.000000 1.000000 0.000000
vn 0.004537 0.999990 0.000277
vn 0.001419 0.999999 0.000088
vn 0.002759 0.999996 0.000088
vn 0.008556 0.999963 0.000272
vn 0.000000 1.000000 -0.000000
vn 0.000000 1.000000 -0.000000
vn 0.000000 1.000000 0.000000
vn 0.000000 1.000000 0.000000
vn 0.066633 0.993571 0.091528
vn 0.000253 0.999992 0.003888
vn 0.001978 0.999979 0.006166
vn 0.066633 0.993571 0.091528
vn 0.000000 1.000000 0.000000
vn 0.000000 1.000000 -0.000000
vn -0.004608 0.999987 -0.002200
vn -0.204615 0.971969 -0.115800
vn -0.191603 0.968355 -0.159927
vn -0.191603 0.968355 -0.159927
vn -0.080235 0.991482 0.102591
vn -0.033407 0.998529 0.042715
vn -0.003619 0.999983 0.004628
vn -0.005237 0.999964 0.006696
vn -0.194637 0.980814 0.010989
vn -0.122333 0.992465 0.006907
vn -0.480002 0.876848 0.027100
vn -0.480003 0.876848 0.027100
vn 0.000000 1.000000 -0.000000
vn 0.000000 1.000000 -0.000000
vn 0.000643 1.000000 0.000042
vn 0.001889 0.999998 0.000124
vn 0.000000 1.000000 0.000000
vn 0.000000 1.000000 -0.000000
vn 0.000000 1.000000 0.000000
vn 0.000000 1.000000 0.000000
vn 0.000000 1.000000 0.000000
vn -0.001155 0.999999 0.000115
vn -0.001138 0.999999 0.000113
vn -0.000000 1.000000 0.000000
vn -0.000000 1.000000 0.000000
vn -0.241713 0.970333 0.005301
vn -0.009488 0.999954 -0.001287
vn -0.011555 0.999933 0.000253
vn -0.000394 1.000000 -0.000172
vn 0.000000 1.000000 0.000000
vn 0.000000 1.000000 -0.000000
vn 0.000000 1.000000 -0.000000
vn 0.000000 1.000000 -0.000000
vn 0.000000 1.000000 0.000000
vn 0.954093 0.299512 -0.000002
vn 0.954093 0.299512 -0.000002
vn 0.954093 0.299512 -0.000002
vn 0.954093 0.299512 -0.000002
vn 0.173111 0.984798 -0.014335
vn 0.173111 0.984798 -0.014335
vn 0.173111 0.984798 -0.014335
vn 0.173111 0.984798 -0.014335
vn 0.137329 0.989469 -0.045739
vn 0.137329 0.989469 -0.045739
vn 0.137329 0.989469 -0.045739
vn 0.137329 0.989469 -0.045739
vn 0.741235 0.671034 -0.016851
vn 0.741235 0.671034 -0.016851
vn 0.741235 0.671034 -0.016851
vn 0.741235 0.671034 -0.016851
vn -0.913874 0.403905 0.041176
vn -0.913874 0.403905 0.041176
vn -0.913874 0.403905 0.041176
vn -0.913874 0.403905 0.041176
vn 0.043607 0.999048 0.001485
vn 0.043607 0.999048 0.001485
vn 0.043607 0.999048 0.001485
vn 0.043607 0.999048 0.001485
s 1
g Woodfloor_Backing1 Floor_lowpoly PROP_____Floor High_Fidelity_Group
usemtl initialShadingGroup
f 27/1/1 28/2/2 14/3/3 5/4/4
f 7/5/5 19/6/6 32/7/7 33/8/8
f 50/9/9 51/10/10 48/11/11 8/12/12
f 52/13/13 53/14/14 31/15/15 9/16/16
s 5
f 10/17/17 55/18/18 56/19/19 12/20/20
s 1
f 6/21/21 14/3/3 28/2/2 29/22/22
f 16/23/23 15/24/24 13/25/25 49/26/26
f 10/17/27 17/27/28 54/28/29 55/18/30
f 18/29/31 20/30/32 21/31/33 2/32/34
f 31/15/15 32/7/7 19/6/6 9/16/16
f 3/33/35 46/34/36 47/35/37 22/36/38
f 29/22/22 30/37/39 23/38/40 6/21/21
f 25/39/41 24/40/42 16/23/23 4/41/43
s 5
f 26/42/44 25/39/45 4/41/46 11/43/47
s 1
f 1/44/48 15/24/24 63/45/49 64/46/50
f 62/47/51 63/45/49 15/24/24 16/23/23
f 16/23/23 24/40/42 61/48/52 62/47/51
f 59/49/53 60/50/54 54/28/29 17/27/28
f 20/30/32 58/51/55 59/49/53 17/27/28
f 57/52/56 58/51/55 20/30/32 18/29/31
s off
f 2/32/57 21/31/58 34/53/59 35/54/60
f 5/4/61 14/3/62 37/55/63 36/56/64
f 14/3/65 6/21/66 39/57/67 38/58/68
f 19/6/69 7/5/70 41/59/71 40/60/72
f 40/60/73 41/59/74 43/61/75 42/62/76
f 9/16/77 19/6/78 45/63/79 44/64/80
s 1
f 47/35/37 46/34/36 6/21/21 23/38/40
f 48/11/11 51/10/10 52/13/13 9/16/16
f 22/36/38 47/35/37 51/10/10 50/9/9
f 52/13/13 51/10/10 47/35/37 23/38/40
f 23/38/40 30/37/39 53/14/14 52/13/13
f 54/28/29 60/50/54 61/48/52 24/40/42
f 55/18/30 54/28/29 24/40/42 25/39/41
s 5
f 56/19/19 55/18/18 25/39/45 26/42/44
s 1
f 33/8/8 32/7/7 58/51/55 57/52/56
f 59/49/53 58/51/55 32/7/7 31/15/15
f 31/15/15 53/14/14 60/50/54 59/49/53
f 61/48/52 60/50/54 53/14/14 30/37/39
f 62/47/51 61/48/52 30/37/39 29/22/22
f 29/22/22 28/2/2 63/45/49 62/47/51
f 64/46/50 63/45/49 28/2/2 27/1/1
